<?xml version="1.0" encoding="UTF-8" standalone="no"?>
<svg width="56px" height="61px" viewBox="0 0 56 61" version="1.1" xmlns="http://www.w3.org/2000/svg" xmlns:xlink="http://www.w3.org/1999/xlink">
    <!-- Generator: Sketch 50.2 (55047) - http://www.bohemiancoding.com/sketch -->
    <title>Group 8</title>
    <desc>Created with Sketch.</desc>
    <defs>
        <polygon id="path-1" points="0.0486558391 0.148392405 31.9270712 0.148392405 31.9270712 18.9744342 0.0486558391 18.9744342"></polygon>
    </defs>
    <g id="Page-1" stroke="none" stroke-width="1" fill="none" fill-rule="evenodd">
        <g id="00---Home" transform="translate(-157.000000, -3575.000000)">
            <g id="Group-13" transform="translate(72.000000, 3447.000000)">
                <g id="Group" transform="translate(0.000000, 104.000000)">
                    <g id="Group-8" transform="translate(85.000000, 24.000000)">
                        <path d="M22.9722396,41.3894506 C22.9794192,41.4768477 22.9708934,41.5190707 22.9868232,41.5469924 C23.5187899,42.4788499 24.0489617,43.4113884 24.5887812,44.3384788 C24.9194935,44.9066735 25.143633,45.6825782 25.6390284,45.9679241 C26.1362187,46.254178 26.9203704,45.9792744 27.561378,46.0718926 C28.6114008,46.2237593 29.2167345,45.8253647 29.6744368,44.8585483 C30.2322053,43.6806169 30.957125,42.5837264 31.6593838,41.365615 C28.7004733,42.108377 25.8398341,42.108604 22.9722396,41.3894506 M46.2488681,40.3797302 C47.3489241,39.5375399 48.5506169,38.9709342 50.0092064,38.9752473 C50.9553488,29.639647 51.8979014,20.3371894 52.8440437,11 C53.3757861,11.0587944 53.8669186,11.1130487 54.4150395,11.1738862 C53.4693458,20.5256039 52.5292612,29.8251104 51.5864843,39.1518576 C53.1953975,39.6487726 54.4004558,40.6239881 55.1956013,42.1065609 C56.0609728,43.7201159 56.2359766,45.4210679 55.6824709,47.1517577 C55.0847656,49.0200128 54.3757758,50.85172 53.747557,52.7102139 C53.6407598,53.0266595 53.6412085,53.4066667 53.6856326,53.7446779 C53.9739401,55.9325567 54.2909663,58.1168034 54.5902677,60.3033202 C54.6198837,60.5207914 54.5940818,60.7462079 54.5940818,60.9916008 L30.9934719,60.9916008 C30.3385538,56.4278826 29.6867768,51.8886811 29.0327561,47.3326811 L25.5026152,47.3326811 C24.8492676,51.8811899 24.195247,56.4349198 23.5394314,61 L0.0133102845,61 C-0.29047838,52.2514358 4.60424356,40.9404338 14.8673196,35.4968424 C22.3830601,42.193958 33.059863,41.4795718 39.7003602,35.4255626 C40.8129805,36.1637845 41.9866279,36.8650044 43.0723246,37.6856292 C44.1611624,38.5082971 45.1620496,39.4496888 46.2488681,40.3797302" id="Fill-1" fill="#FFFFFF"></path>
                        <path d="M33.6982833,30.999941 C32.9463179,30.6642564 32.18452,30.3737239 31.4678623,29.9888687 C30.8738878,29.6699684 30.3330984,29.2399613 29.769292,28.8586521 C28.8991127,28.2700222 28.0530678,28.1199097 27.2961861,29.0378414 C26.3004185,28.2071404 25.8568372,28.1695532 24.7558168,28.8874925 C23.5068614,29.7021185 22.3475163,30.6994797 20.7836964,30.9869391 C21.7667263,31.5561844 22.7401472,32.0970619 23.7721164,32.4412567 C24.8139181,32.7885247 25.8789604,32.7183147 26.7652293,31.8871409 C26.9500362,31.7140979 27.0943957,31.4925934 27.2729456,31.2743985 C27.8427856,32.1114822 28.5355324,32.5542548 29.3976669,32.5951515 C31.0584713,32.6741083 32.4240763,31.8575912 33.6982833,30.999941 Z M30.4975699,21.5088162 C30.4975699,21.7986396 30.4890782,22.0499301 30.4989107,22.3005115 C30.5677385,24.0545813 31.607529,25.2417697 33.2562662,25.3162349 C34.592597,25.3765163 35.9367492,25.3661148 37.272633,25.2899948 C38.4684033,25.2219123 39.3504263,24.5089373 39.6181394,23.2855801 C39.8349021,22.2946016 39.7759069,21.2362498 39.8411592,20.1786072 L16.1306729,20.1786072 C16.1306729,21.0088354 16.0716777,21.816133 16.1429636,22.6101923 C16.288217,24.2236055 17.2779509,25.2434245 18.8118263,25.3122162 C20.1667048,25.3729703 21.5291812,25.3630416 22.8836128,25.2888128 C24.2530167,25.2138748 25.2827512,24.0285775 25.3562718,22.5747327 C25.3739256,22.2284103 25.3589534,21.8801967 25.3589534,21.5088162 L30.4975699,21.5088162 Z M19.5266962,11 C20.755763,12.4815034 22.2074026,13.636069 23.8170332,14.5674753 C26.9656789,16.3896275 30.3460595,17.5056603 33.8616375,18.1850668 C35.0314856,18.4112992 36.2093785,18.6164923 37.3919642,18.7389462 C39.1101996,18.9169536 40.8110046,18.8138842 42.4916976,17.9543428 C42.6293531,18.697813 42.7969531,19.3781652 42.8765072,20.0698644 C43.330815,24.0191216 42.5346032,27.6943942 40.4387091,30.9774832 C38.020576,34.7648082 34.6312567,37.1292563 30.3406963,37.7923514 C24.2990509,38.7265945 19.3885938,36.4947653 15.7219524,31.3717943 C13.9923202,28.9551022 12.9869435,26.1325156 13.0001281,23.0848786 C13.0063851,21.6099943 13.4989057,20.1159619 13.8957826,18.6689725 C14.8055155,15.3516059 16.9948186,13.0526398 19.5266962,11 Z" id="Fill-3" fill="#FFFFFF"></path>
                        <g id="Group-7" transform="translate(10.000000, 0.000000)">
                            <mask id="mask-2" fill="white">
                                <use xlink:href="#path-1"></use>
                            </mask>
                            <g id="Clip-6"></g>
                            <path d="M1.03981864,11.4948192 C1.12478416,10.421199 1.37968071,9.30645216 1.79700485,8.33264203 C2.67777726,6.27775596 4.35899106,5.32054077 6.33813589,4.94607241 C7.07744623,4.80633824 7.83661864,4.79527495 8.57968071,4.67454077 C8.78933589,4.64038887 9.05526692,4.4780471 9.15899106,4.28684457 C10.7850324,1.28580659 13.2662462,-0.13390227 16.3766462,0.0099205148 C22.505198,0.29323697 27.5166186,3.08695849 31.2665773,8.42331292 C32.0645911,9.55922431 32.6379428,10.8507433 32.8259704,12.2916167 C33.1481773,14.7645028 31.9712393,16.4389079 29.6946049,16.8369458 C27.8778876,17.1548952 26.10266,16.7994268 24.3305221,16.465123 C21.0020807,15.83668 17.7725083,14.8479585 14.7757635,13.1004395 C13.1792945,12.1694395 11.6821359,11.0809079 10.5413911,9.50871798 C10.259129,9.11957874 10.0304945,8.68378127 9.72219106,8.17968001 C6.39043933,10.9596927 3.18823244,13.8522623 2.22381864,18.8261737 C1.39777726,16.3653129 0.842963471,13.9833382 1.03981864,11.4948192 Z" id="Fill-5" fill="#FFFFFF" mask="url(#mask-2)"></path>
                        </g>
                    </g>
                </g>
            </g>
        </g>
    </g>
</svg>