<?xml version="1.0" encoding="UTF-8" standalone="no"?>
<svg width="55px" height="61px" viewBox="0 0 55 61" version="1.1" xmlns="http://www.w3.org/2000/svg" xmlns:xlink="http://www.w3.org/1999/xlink">
    <!-- Generator: Sketch 50.2 (55047) - http://www.bohemiancoding.com/sketch -->
    <title>Group 15</title>
    <desc>Created with Sketch.</desc>
    <defs>
        <polygon id="path-1" points="0.148610602 0.0779166667 30.7896033 0.0779166667 30.7896033 16.8221944 0.148610602 16.8221944"></polygon>
        <polygon id="path-3" points="2.17391304e-05 0.209983032 54.938913 0.209983032 54.938913 26.2058824 2.17391304e-05 26.2058824"></polygon>
    </defs>
    <g id="Page-1" stroke="none" stroke-width="1" fill="none" fill-rule="evenodd">
        <g id="00---Home" transform="translate(-421.000000, -3575.000000)">
            <g id="Group-13" transform="translate(72.000000, 3447.000000)">
                <g id="Group-11" transform="translate(263.000000, 104.000000)">
                    <g id="Group-15" transform="translate(86.000000, 24.000000)">
                        <g id="Group-3" transform="translate(12.000000, 0.000000)">
                            <mask id="mask-2" fill="white">
                                <use xlink:href="#path-1"></use>
                            </mask>
                            <g id="Clip-2"></g>
                            <path d="M30.0029213,15.8747889 C26.7120844,14.4092472 24.5988078,11.78015 23.3095596,8.31262222 C21.0151199,12.1255806 17.4094461,13.7644278 13.6329426,15.0911361 C11.0337794,16.0041778 8.35590709,16.56565 5.62922624,16.793025 C4.81794965,16.8607889 3.97589291,16.8090806 3.17494965,16.6525389 C0.780034752,16.1850389 -0.32145461,14.2024139 0.336141135,11.6649278 C0.978786525,9.18505278 2.40170851,7.25366389 4.14606312,5.58294167 C7.41469433,2.45234444 11.2516589,0.63665 15.6030915,0.144594444 C17.8113468,-0.104975 19.9070348,0.326872222 21.7615383,1.74731667 C22.6583397,2.43416389 23.3313255,3.32146944 23.8965809,4.32801111 C24.024978,4.55633056 24.2976021,4.77992778 24.5370277,4.83281667 C25.7862617,5.10835833 27.0020773,5.48849722 28.0378291,6.30237222 C30.1640773,7.97403889 30.945673,10.3072889 30.7642901,13.0617611 C30.6998716,14.0406778 30.5725738,15.0136917 30.0029213,15.8747889" id="Fill-1" fill="#FFFFFF" mask="url(#mask-2)"></path>
                        </g>
                        <path d="M28.38174,22.0105798 C28.7074053,23.0987048 29.0099324,24.1226657 29.3204605,25.1439623 C29.6686154,26.2891467 30.3177836,26.8266596 31.4958876,26.8490837 C33.0444198,26.8788345 34.5944656,26.8814988 36.1429978,26.8475295 C37.3137495,26.8215531 37.9908133,26.2283129 38.3121537,25.0584842 C38.5223441,24.2936218 38.7137211,23.5229869 38.9451035,22.7650072 C38.9907313,22.615143 39.1760534,22.4071093 39.3029894,22.4026689 C40.1999746,22.3713639 41.0986899,22.3860173 42,22.3860173 C41.6524939,29.0248896 36.0740155,35.5336576 28.4005533,35.9745913 C19.6581908,36.4770249 13.4534663,29.4433992 13,22.3869054 C13.8991477,22.3869054 14.7948355,22.3742502 15.6892258,22.404223 C15.7919423,22.4077754 15.9346641,22.6346808 15.9781294,22.7829909 C16.2010782,23.5436349 16.392239,24.3142698 16.6045919,25.0784661 C16.925716,26.2338635 17.6235394,26.8268816 18.790615,26.8488617 C20.3391471,26.8783905 21.889193,26.8812767 23.4375089,26.8481956 C24.6145317,26.8226632 25.2496439,26.2853723 25.5999612,25.1266447 C25.8719977,24.2276816 26.1433855,23.3284965 26.3948787,22.4233168 C26.4815931,22.1102672 26.6232337,21.9794968 26.9545214,22.002587 C27.4190162,22.034558 27.8869709,22.0105798 28.38174,22.0105798" id="Fill-4" fill="#FFFFFF"></path>
                        <path d="M28.1562803,20.6166857 C27.9724877,20.6166857 27.7942387,20.600486 27.6189748,20.6197827 C27.0652516,20.6802935 26.6665368,20.600486 26.3612108,19.9165237 C26.006845,19.1227368 25.2725274,18.8082714 24.4635841,18.8628264 C22.247412,19.011721 20.0318795,19.1730036 17.8157074,19.3257099 C16.9592168,19.3845531 16.3553878,19.8526777 15.9489971,20.6888698 C15.8820472,20.827044 15.7029453,20.9790356 15.5720304,20.9833238 C14.757117,21.0100057 13.9413508,20.9966648 13,20.9966648 C13.1607652,19.7183152 13.3187586,18.4623594 13.4897583,17.1015819 C14.9321677,17.8679722 16.3519763,18.1235944 17.7914008,17.9668382 C23.1303414,17.3857919 28.2643811,16.0290642 32.8272138,12.6857252 C33.5067347,12.1882981 34.1161074,11.5712788 34.7687631,11 C35.7922022,12.7419478 37.0047643,14.3419097 38.6245699,15.4785115 C39.4023836,16.0242996 40.253757,16.4388222 41.066325,16.9248142 C41.2085404,17.0098628 41.4121622,17.1351725 41.4354028,17.2738231 C41.640517,18.4928531 41.8113034,19.7190299 42,20.9957118 L39.032453,20.9957118 C38.5812869,19.6661426 37.6403626,19.3190395 36.4559451,19.2809224 C34.6105564,19.2213646 32.7630356,19.097246 30.9257492,18.896417 C29.6082846,18.7525253 28.6588316,19.1706213 28.1562803,20.6166857" id="Fill-6" fill="#FFFFFF"></path>
                        <path d="M34.0811581,24.9978423 C33.3426264,24.9983091 32.6038727,24.9938739 31.8651191,24.9999432 C31.4437033,25.0034447 31.205367,24.8456425 31.083314,24.3720026 C30.7848389,23.2122966 30.4191237,22.0717324 30.0838107,20.922531 C29.8756549,20.2093866 30.0418689,19.96498 30.7331328,20.0039636 C32.9456212,20.1288515 35.1578876,20.2595751 37.3694884,20.3982356 C37.9482416,20.4346515 38.0986997,20.6816259 37.9418061,21.2803872 C37.6675197,22.3278108 37.3768116,23.3710326 37.1178372,24.422658 C37.0164223,24.8337373 36.7909571,25.0001766 36.4081544,24.9983091 C35.6325629,24.9948076 34.8567496,24.9973754 34.0811581,24.9978423" id="Fill-8" fill="#FFFFFF"></path>
                        <path d="M20.8592481,24.9956608 C20.1385656,24.9956608 19.4178831,24.9851629 18.6976443,24.9996267 C18.2500182,25.008725 17.9842817,24.8531219 17.8673843,24.3541191 C17.624495,23.3180876 17.3254861,22.2969865 17.0553134,21.2679537 C16.9002635,20.6784352 17.0624115,20.4332496 17.6531094,20.3968567 C19.8657311,20.2594501 22.0787964,20.1267093 24.2920835,20.0033 C24.9309157,19.967607 25.115689,20.2195579 24.9333557,20.8517681 C24.5899834,22.0401366 24.2186622,23.2198734 23.8948098,24.4138408 C23.7743633,24.8573211 23.530365,25.0012598 23.1317603,24.9975271 C22.3742563,24.9905285 21.6167522,24.9956608 20.8592481,24.9956608" id="Fill-10" fill="#FFFFFF"></path>
                        <g id="Group-14" transform="translate(0.000000, 34.000000)">
                            <mask id="mask-4" fill="white">
                                <use xlink:href="#path-3"></use>
                            </mask>
                            <g id="Clip-13"></g>
                            <path d="M40.0815435,0.209983032 C49.5900217,5.96385407 54.4128478,14.7219943 54.9389348,26.2059943 L2.17391304e-05,26.2059943 C0.180891304,24.5317296 0.287413043,22.8762794 0.548717391,21.247259 C1.42502174,15.7821007 3.64263043,10.9422998 7.13719565,6.73726357 C9.30067391,4.13414593 11.8554565,2.01124548 14.7598043,0.332277149 C15.0880652,0.142340498 15.2493696,0.289496606 15.4602391,0.477193439 C17.2917609,2.10890158 19.3569783,3.33587443 21.6619783,4.0812862 C26.5826304,5.67222964 31.3902391,5.37254186 35.9843696,2.89149434 C37.3687174,2.14406674 38.6356739,1.1657138 40.0815435,0.209983032" id="Fill-12" fill="#FFFFFF" mask="url(#mask-4)"></path>
                        </g>
                    </g>
                </g>
            </g>
        </g>
    </g>
</svg>