<svg width="56" height="61" viewBox="0 0 56 61" xmlns="http://www.w3.org/2000/svg" xmlns:xlink="http://www.w3.org/1999/xlink"><title>Group 8</title><defs><path id="a" d="M.049.148h31.878v18.826H.05z"/></defs><g fill="none" fill-rule="evenodd"><path d="M22.972 41.39c.007.087-.001.13.015.157.532.932 1.062 1.864 1.602 2.791.33.569.555 1.345 1.05 1.63.497.286 1.281.011 1.922.104 1.05.152 1.656-.247 2.113-1.213.558-1.178 1.283-2.275 1.985-3.493-2.959.742-5.82.743-8.687.023m23.277-1.01c1.1-.841 2.302-1.408 3.76-1.404L52.844 11l1.571.174-2.829 27.978c1.61.497 2.814 1.472 3.61 2.955.865 1.613 1.04 3.314.486 5.045-.597 1.868-1.306 3.7-1.934 5.558-.107.317-.107.697-.062 1.035.288 2.188.605 4.372.904 6.558.03.218.004.443.004.689h-23.6l-1.961-13.66h-3.53L23.539 61H.013c-.303-8.749 4.591-20.06 14.854-25.503 7.516 6.697 18.193 5.983 24.833-.071 1.113.738 2.287 1.439 3.372 2.26 1.09.822 2.09 1.764 3.177 2.694" fill="#FFF"/><path d="M33.698 31c-.752-.336-1.513-.626-2.23-1.011-.594-.319-1.135-.749-1.699-1.13-.87-.589-1.716-.74-2.473.179-.996-.83-1.44-.868-2.54-.15-1.25.814-2.408 1.811-3.972 2.099.983.57 1.956 1.11 2.988 1.454 1.042.348 2.107.277 2.993-.554.185-.173.33-.394.508-.613.57.837 1.263 1.28 2.125 1.321 1.66.08 3.026-.737 4.3-1.595zm-3.2-9.491c0 .29-.009.54 0 .792.07 1.754 1.11 2.94 2.758 3.015 1.337.06 2.68.05 4.017-.026 1.195-.068 2.077-.781 2.345-2.004.217-.991.158-2.05.223-3.107h-23.71c0 .83-.06 1.637.012 2.431.145 1.614 1.135 2.633 2.669 2.702 1.355.061 2.717.051 4.072-.023 1.369-.075 2.399-1.26 2.472-2.714.018-.347.003-.695.003-1.066h5.139zM19.527 11c1.229 1.482 2.68 2.636 4.29 3.567 3.149 1.823 6.53 2.939 10.045 3.618 1.17.226 2.347.431 3.53.554 1.718.178 3.419.075 5.1-.785.137.744.305 1.424.385 2.116.454 3.95-.342 7.624-2.438 10.907-2.418 3.788-5.808 6.152-10.098 6.815-6.042.935-10.952-1.297-14.619-6.42-1.73-2.417-2.735-5.24-2.722-8.287.006-1.475.499-2.969.896-4.416.91-3.317 3.099-5.616 5.63-7.669z" fill="#FFF"/><g transform="translate(10)"><mask id="b" fill="#fff"><use xlink:href="#a"/></mask><path d="M1.04 11.495c.085-1.074.34-2.189.757-3.162.88-2.055 2.562-3.012 4.541-3.387.74-.14 1.499-.15 2.242-.271.21-.035.475-.197.579-.388 1.626-3.001 4.107-4.42 7.218-4.277 6.128.283 11.14 3.077 14.89 8.413.798 1.136 1.37 2.428 1.559 3.869.322 2.473-.855 4.147-3.131 4.545-1.817.318-3.592-.038-5.364-.372-3.329-.628-6.558-1.617-9.555-3.365-1.597-.93-3.094-2.02-4.235-3.591-.282-.39-.51-.825-.819-1.33-3.332 2.78-6.534 5.673-7.498 10.647-.826-2.46-1.381-4.843-1.184-7.331z" fill="#FFF" mask="url(#b)"/></g></g></svg>