<svg width="55" height="61" viewBox="0 0 55 61" xmlns="http://www.w3.org/2000/svg" xmlns:xlink="http://www.w3.org/1999/xlink"><title>Group 15</title><defs><path id="a" d="M.149.078h30.64v16.744H.15z"/><path id="c" d="M0 .21h54.939v25.996H0z"/></defs><g fill="none" fill-rule="evenodd"><g transform="translate(12)"><mask id="b" fill="#fff"><use xlink:href="#a"/></mask><path d="M30.003 15.875c-3.29-1.466-5.404-4.095-6.693-7.562-2.295 3.813-5.9 5.451-9.677 6.778a32.143 32.143 0 0 1-8.004 1.702 9.014 9.014 0 0 1-2.454-.14C.78 16.185-.321 14.203.336 11.665c.643-2.48 2.066-4.411 3.81-6.082C7.415 2.453 11.252.637 15.603.145c2.208-.25 4.304.182 6.159 1.602.896.687 1.57 1.574 2.135 2.581.128.228.4.452.64.505 1.25.275 2.465.655 3.5 1.47 2.127 1.671 2.909 4.004 2.727 6.759-.064.979-.191 1.952-.761 2.813" fill="#FFF" mask="url(#b)"/></g><path d="M28.382 22.01c.325 1.089.628 2.113.938 3.134.349 1.145.998 1.683 2.176 1.705 1.548.03 3.098.032 4.647-.001 1.17-.026 1.848-.62 2.17-1.79.21-.764.4-1.535.632-2.293.046-.15.231-.358.358-.362.897-.032 1.796-.017 2.697-.017-.348 6.639-5.926 13.148-13.6 13.589-8.742.502-14.947-6.532-15.4-13.588.9 0 1.795-.013 2.69.017.102.004.245.23.288.379.223.76.414 1.531.627 2.295.32 1.156 1.019 1.749 2.186 1.77 1.548.03 3.098.033 4.647 0 1.177-.025 1.812-.563 2.162-1.721.272-.9.543-1.799.795-2.704.087-.313.228-.444.56-.42.464.032.932.008 1.427.008M28.156 20.617c-.184 0-.362-.017-.537.003-.554.06-.952-.02-1.258-.703-.354-.794-1.088-1.109-1.897-1.054-2.217.149-4.432.31-6.648.463-.857.059-1.46.527-1.867 1.363-.067.138-.246.29-.377.294-.815.027-1.63.014-2.572.014l.49-3.895c1.442.766 2.862 1.022 4.301.865 5.34-.581 10.473-1.938 15.036-5.281.68-.498 1.29-1.115 1.942-1.686 1.023 1.742 2.236 3.342 3.856 4.479.777.545 1.629.96 2.441 1.446.143.085.346.21.37.349.205 1.219.375 2.445.564 3.722h-2.968c-.45-1.33-1.392-1.677-2.576-1.715a72.423 72.423 0 0 1-5.53-.385c-1.318-.143-2.267.275-2.77 1.72" fill="#FFF"/><path d="M34.081 24.998c-.738 0-1.477-.004-2.216.002-.421.003-.66-.154-.782-.628-.298-1.16-.664-2.3-1-3.45-.207-.713-.041-.957.65-.918 2.213.125 4.425.256 6.636.394.58.037.73.284.573.882-.274 1.048-.565 2.091-.824 3.143-.102.41-.327.577-.71.575-.775-.003-1.551 0-2.327 0M20.86 24.996c-.721 0-1.442-.01-2.162.004-.448.009-.714-.147-.83-.646-.244-1.036-.543-2.057-.813-3.086-.155-.59.007-.835.598-.871 2.213-.138 4.426-.27 6.64-.394.638-.035.823.217.64.849-.343 1.188-.714 2.368-1.038 3.562-.12.443-.365.587-.763.584-.758-.007-1.515-.002-2.273-.002" fill="#FFF"/><g transform="translate(0 34)"><mask id="d" fill="#fff"><use xlink:href="#c"/></mask><path d="M40.082.21c9.508 5.754 14.33 14.512 14.857 25.996H0c.18-1.674.287-3.33.549-4.959.876-5.465 3.094-10.305 6.588-14.51A28.126 28.126 0 0 1 14.76.332c.328-.19.49-.043.7.145 1.832 1.632 3.897 2.859 6.202 3.604 4.92 1.591 9.728 1.292 14.322-1.19 1.385-.747 2.652-1.725 4.098-2.681" fill="#FFF" mask="url(#d)"/></g></g></svg>